# xmcd CD database file
#
# Track frame offsets:
#	150
#	23170
#	38927
#	60250
#
# Disc length: 1106 seconds
#
# Revision: 7
# Processed by: cddbd v1.5PL3 Copyright (c) Steve Scherf et al.
# Submitted via: CDex 1.50beta9
#
DISCID=27045004
DTITLE=愛内 里菜 - Forever You〜永遠に君と〜
DYEAR=2002
DGENRE=JPop
TTITLE0=Forever You〜永遠に君と〜
TTITLE1=Rosemary
TTITLE2=Forever You〜永遠に君と〜<Jelly Wong Mata Leao Mix>
TTITLE3=Forever You〜永遠に君と〜<instrumental>
EXTD=YEAR: 2002
EXTT0=
EXTT1=
EXTT2=
EXTT3=
PLAYORDER=
